HIERARCHY
ROOT root
{
	OFFSET	0	13.1	24.9
	CHANNELS 6  Xposition Yposition Zposition Xrotation Yrotation Zrotation
	JOINT spine_1
	{
		OFFSET	0	9.99999	0
		CHANNELS 3  Xrotation Yrotation Zrotation
		JOINT spine_2
		{
			OFFSET	0	112	-10
			CHANNELS 3  Xrotation Yrotation Zrotation
			JOINT spine_3
			{
				OFFSET	0	206.5	19.3
				CHANNELS 3  Xrotation Yrotation Zrotation
				JOINT spine_4
				{
					OFFSET	0	110.4	14.6
					CHANNELS 3  Xrotation Yrotation Zrotation
					JOINT neck_1
					{
						OFFSET	0	71.8	-50.3
						CHANNELS 3  Xrotation Yrotation Zrotation
						JOINT neck_2
						{
							OFFSET	0	86.2	-25.8
							CHANNELS 3  Xrotation Yrotation Zrotation
							JOINT head_ee
							{
								OFFSET	0	179.8	-8.7
								CHANNELS 3  Xrotation Yrotation Zrotation
								End Site
								{
									OFFSET	1	0	0
								}
							}
						}
					}
					JOINT left_clavicle
					{
						OFFSET	-43.2	22.4	-70.8
						CHANNELS 3  Xrotation Yrotation Zrotation
						JOINT left_shoulder
						{
							OFFSET	-93.9	-5.79999	48.7
							CHANNELS 3  Xrotation Yrotation Zrotation
							JOINT left_elbow
							{
								OFFSET	-291.4	-30.8	15.2
								CHANNELS 3  Xrotation Yrotation Zrotation
								JOINT left_lowarm_twist
								{
									OFFSET	-110.7	-3.89999	13.6
									CHANNELS 3  Xrotation Yrotation Zrotation
									JOINT left_hand
									{
										OFFSET	-110.7	-3.89999	13.6
										CHANNELS 3  Xrotation Yrotation Zrotation
										JOINT left_ee
										{
											OFFSET	-80.8	-5.10001	12.1
											CHANNELS 3  Xrotation Yrotation Zrotation
											End Site
											{
												OFFSET	1	0	0
											}
										}
									}
								}
							}
						}
					}
					JOINT right_clavicle
					{
						OFFSET	43.2	22.4	-70.8
						CHANNELS 3  Xrotation Yrotation Zrotation
						JOINT right_shoulder
						{
							OFFSET	93.9	-5.79999	48.7
							CHANNELS 3  Xrotation Yrotation Zrotation
							JOINT right_elbow
							{
								OFFSET	291.4	-30.8	15.2
								CHANNELS 3  Xrotation Yrotation Zrotation
								JOINT right_lowarm_twist
								{
									OFFSET	110.7	-3.89999	13.6
									CHANNELS 3  Xrotation Yrotation Zrotation
									JOINT right_hand
									{
										OFFSET	110.7	-3.89999	13.6
										CHANNELS 3  Xrotation Yrotation Zrotation
										JOINT right_ee
										{
											OFFSET	80.8	-5.10001	12.1
											CHANNELS 3  Xrotation Yrotation Zrotation
											End Site
											{
												OFFSET	1	0	0
											}
										}
									}
								}
							}
						}
					}
				}
			}
		}
	}
	JOINT left_hip
	{
		OFFSET	-82.8	-127.5	0.300001
		CHANNELS 3  Xrotation Yrotation Zrotation
		JOINT left_knee
		{
			OFFSET	-28.2	-396.7	2.2
			CHANNELS 3  Xrotation Yrotation Zrotation
			JOINT left_ankle
			{
				OFFSET	-11.7	-411.3	35.4
				CHANNELS 3  Xrotation Yrotation Zrotation
				JOINT left_toes
				{
					OFFSET	0	-60	-88.6
					CHANNELS 3  Xrotation Yrotation Zrotation
					JOINT left_foot_ee
					{
						OFFSET	-22.5	-16.5	-42.2
						CHANNELS 3  Xrotation Yrotation Zrotation
						End Site
						{
							OFFSET	1	0	0
						}
					}
				}
			}
		}
	}
	JOINT right_hip
	{
		OFFSET	82.8	-127.5	0.300001
		CHANNELS 3  Xrotation Yrotation Zrotation
		JOINT right_knee
		{
			OFFSET	28.2	-396.7	2.2
			CHANNELS 3  Xrotation Yrotation Zrotation
			JOINT right_ankle
			{
				OFFSET	11.7	-411.3	35.4
				CHANNELS 3  Xrotation Yrotation Zrotation
				JOINT right_toes
				{
					OFFSET	0	-60	-88.6
					CHANNELS 3  Xrotation Yrotation Zrotation
					JOINT right_foot_ee
					{
						OFFSET	22.5	-16.5	-42.2
						CHANNELS 3  Xrotation Yrotation Zrotation
						End Site
						{
							OFFSET	1	0	0
						}
					}
				}
			}
		}
	}
}
MOTION
Frames: 9
Frame Time: 0.02
2494.89945022 777.74 -1456.68982797 53.9639556774 79.17193066 -60.2242063666 -2.71307 0.911106 2.20205 -2.7107 0.769175 2.25552 -2.67616 0.167448 2.37712 -2.68364 0.540666 2.3209 -9.34077 5.58821 -0.398666 -9.36769 10.7648 0.946164 -0.0 0.0 -0.0 0.0277121 10.0059 1.23281 -18.7575 -18.5012 72.0761 0.435156 -12.1649 0.0463703 -79.5468 -7.76432 5.28562 3.71139 -25.426 13.3403 -0.0 0.0 -0.0 6.30493 21.4856 -11.1373 7.94454 13.1892 -60.8602 2.95291 55.6314 -1.55818 0.103324 -0.00362897 0.0126967 3.32337 -0.198054 -22.9007 0.0 0.0 0.0 -5.38224 19.8434 4.31464 -19.6774 0.299338 2.99 -16.1165 -1.6197 2.45792 -31.7821 0.0 0.0 -0.0 0.0 -0.0 5.7794 12.2392 1.20061 -9.80068 -0.277798 -1.47661 2.32197 7.14422 0.350512 18.7908 -0.0 -0.0 0.0 0.0 0.0 
2479.28020474 784.506 -1456.47380218 46.438568814 78.2342995456 -52.3888824133 -2.40427 0.866412 2.26168 -2.40171 0.720779 2.31219 -2.36849 0.119136 2.41894 -2.37631 0.499559 2.36982 -10.4423 6.05504 -0.0213516 -10.4896 11.4326 1.53603 -0.0 0.0 -0.0 -0.459757 17.4273 1.33523 -19.7613 -20.5381 69.0955 0.494338 -13.76 0.059647 -78.9474 -7.68815 5.29268 2.47515 -19.4555 8.17853 -0.0 0.0 -0.0 6.48172 22.938 -11.392 6.40511 13.8893 -62.0376 3.1173 57.0616 -1.69502 -1.16998 0.0426899 -0.143309 2.31084 5.0734 -13.5519 0.0 0.0 0.0 -2.88894 22.5406 1.32034 -24.8572 0.206453 3.77915 1.11041 -8.92899 -0.169736 -39.5272 0.0 0.0 -0.0 0.0 -0.0 2.21349 9.61622 0.978606 -2.47121 -0.0938322 -0.367612 -6.17742 13.4914 -0.988244 22.8999 -0.0 -0.0 0.0 0.0 0.0 
2466.62083718 783.049 -1450.77610474 44.948926511 78.4758128176 -51.4019144925 -2.21929 0.841776 2.49532 -2.21608 0.681339 2.54379 -2.18117 0.0315479 2.63321 -2.19056 0.446876 2.59523 -10.7371 5.42341 0.817562 -10.7727 9.69594 2.20984 -0.0 0.0 -0.0 -0.787497 22.5842 1.52095 -20.1036 -22.0586 67.2059 0.531523 -14.7514 0.068804 -79.8548 -7.80342 5.28167 2.75775 -20.2097 9.70292 -0.0 0.0 -0.0 6.25082 22.7535 -10.9051 6.37069 14.7039 -62.3433 3.21707 57.8791 -1.77914 0.141997 -0.00498167 0.0174506 1.99724 6.70286 -10.6965 0.0 0.0 0.0 -1.03236 24.651 0.958229 -27.1384 0.142993 4.12345 6.08236 -8.70064 -0.914723 -38.7446 0.0 0.0 -0.0 0.0 -0.0 0.0356302 9.783 2.41491 2.08498 0.0914573 0.306846 -8.89492 20.6209 -1.51831 22.5174 -0.0 -0.0 0.0 0.0 0.0 
2437.62269415 786.799 -1472.25848801 37.8184974932 76.973670961 -42.0623731714 -1.98111 0.415754 2.5155 -1.97763 0.254896 2.53684 -1.96256 -0.370741 2.52252 -1.97143 0.0321634 2.5494 -9.38653 4.89685 -0.4834 -9.40747 9.52605 0.700221 -0.0 0.0 -0.0 -0.435748 21.898 1.92691 -21.4184 -22.6275 65.7291 0.464174 -12.9496 0.0526796 -77.5134 -7.50562 5.30631 2.5282 -18.4749 9.00252 -0.0 0.0 -0.0 6.27396 25.3241 -10.7078 4.95563 16.922 -64.1383 3.18751 57.6407 -1.75414 -1.5075 0.055549 -0.184489 0.719668 7.64783 -1.61293 0.0 0.0 0.0 0.59511 25.4279 -3.06413 -9.23565 0.268681 1.39039 7.02153 0.160752 -1.01755 -40.1567 0.0 0.0 -0.0 0.0 -0.0 -2.06382 5.26681 -0.603519 3.08522 0.13929 0.45285 -11.7122 19.4897 -1.98572 30.0416 -0.0 -0.0 0.0 0.0 0.0 
2402.35775016 791.483 -1481.29873232 23.3474340973 71.9358901427 -25.2557276948 -1.42091 0.456826 1.61247 -1.41953 0.353309 1.63826 -1.4079 -0.0400441 1.67544 -1.41175 0.225025 1.66074 -9.40718 5.33214 -2.0837 -9.42403 11.4389 -0.760542 -0.0 0.0 -0.0 0.131621 19.8167 2.5052 -22.0725 -20.7109 68.3901 0.598522 -16.5147 0.0868608 -77.5197 -7.50641 5.30626 2.13817 -14.9727 8.00508 -0.0 0.0 -0.0 5.68815 22.6604 -9.68805 1.11563 18.8736 -64.7774 2.91066 55.2459 -1.52338 -8.71802 0.38747 -1.04396 0.093844 5.46682 1.68449 0.0 0.0 0.0 -4.70706 22.9867 -1.51932 5.03151 -0.239652 -0.734501 -4.4142 21.2849 0.668535 -33.7487 0.0 0.0 -0.0 0.0 -0.0 -2.33075 4.2169 -2.57135 2.75583 0.123256 0.40486 -10.2836 14.4534 -1.66806 39.2913 -0.0 -0.0 0.0 0.0 0.0 
2377.76724439 791.811 -1487.03194136 21.1404151395 68.4428951424 -22.2824480137 -1.13304 0.489187 1.199 -1.13233 0.411906 1.22769 -1.12264 0.11949 1.28941 -1.12482 0.321613 1.25437 -11.3249 7.2742 -0.843373 -11.417 14.3132 1.16915 -0.0 0.0 -0.0 -1.02068 19.0383 0.699118 -18.8442 -21.0123 71.6471 0.59029 -16.2997 0.0845355 -77.3837 -7.48908 5.30732 1.94588 -13.8513 7.21119 -0.0 0.0 -0.0 5.58377 26.055 -9.12786 -3.78939 19.4635 -64.6181 2.76983 53.905 -1.40861 -13.4245 0.661454 -1.57998 -0.0950753 0.800571 0.973937 0.0 0.0 0.0 -6.59966 20.9512 -2.051 0.458694 -0.0191595 -0.067782 4.49656 24.8321 -0.678692 -29.8824 0.0 0.0 -0.0 0.0 -0.0 -4.04345 3.31704 -2.27805 1.49775 0.0645673 0.220755 -6.94153 14.399 -1.11942 40.1441 -0.0 -0.0 0.0 0.0 0.0 
2377.70563212 791.811 -1484.89339985 21.408167052 68.7126935098 -22.5700696409 -1.13304 0.489187 1.199 -1.13233 0.411906 1.22769 -1.12264 0.11949 1.28941 -1.12482 0.321613 1.25437 -11.3249 7.2742 -0.843373 -11.417 14.3132 1.16915 -0.0 0.0 -0.0 -1.02068 19.0383 0.699118 -18.8442 -21.0123 71.6471 0.59029 -16.2997 0.0845355 -77.3837 -7.48908 5.30732 1.94588 -13.8513 7.21119 -0.0 0.0 -0.0 5.58377 26.055 -9.12786 -3.78939 19.4635 -64.6181 2.76983 53.905 -1.40861 -13.4245 0.661454 -1.57998 -0.0950753 0.800571 0.973937 0.0 0.0 0.0 -6.59966 20.9512 -2.051 0.458694 -0.0191595 -0.067782 4.49656 24.8321 -0.678692 -29.8824 0.0 0.0 -0.0 0.0 -0.0 -4.04345 3.31704 -2.27805 1.49775 0.0645673 0.220755 -6.94153 14.399 -1.11942 40.1441 -0.0 -0.0 0.0 0.0 0.0 
2377.61688832 791.811 -1480.74160634 21.9482397226 69.2349419309 -23.1486606905 -1.13304 0.489187 1.199 -1.13233 0.411906 1.22769 -1.12264 0.11949 1.28941 -1.12482 0.321613 1.25437 -11.3249 7.2742 -0.843373 -11.417 14.3132 1.16915 -0.0 0.0 -0.0 -1.02068 19.0383 0.699118 -18.8442 -21.0123 71.6471 0.59029 -16.2997 0.0845355 -77.3837 -7.48908 5.30732 1.94588 -13.8513 7.21119 -0.0 0.0 -0.0 5.58377 26.055 -9.12786 -3.78939 19.4635 -64.6181 2.76983 53.905 -1.40861 -13.4245 0.661454 -1.57998 -0.0950753 0.800571 0.973937 0.0 0.0 0.0 -6.59966 20.9512 -2.051 0.458694 -0.0191595 -0.067782 4.49656 24.8321 -0.678692 -29.8824 0.0 0.0 -0.0 0.0 -0.0 -4.04345 3.31704 -2.27805 1.49775 0.0645673 0.220755 -6.94153 14.399 -1.11942 40.1441 -0.0 -0.0 0.0 0.0 0.0 
2372.44747845 790.98 -1489.52838194 19.9027770451 67.4272631771 -20.8047061985 -0.970428 0.407982 1.03389 -0.969898 0.341369 1.05775 -0.962991 0.092861 1.10758 -0.964603 0.266608 1.07902 -11.2455 7.09029 0.268935 -11.3249 13.235 2.18013 -0.0 0.0 -0.0 -1.38994 18.6043 0.0813942 -17.6156 -20.0751 72.2821 0.675344 -18.4975 0.109973 -76.944 -7.43302 5.31044 1.66561 -12.1783 6.05729 -0.0 0.0 -0.0 5.85813 23.6059 -9.96894 -4.94787 19.4154 -64.2858 2.60578 52.2263 -1.27747 -15.2711 0.780865 -1.78393 0.0637916 2.31597 0.550581 0.0 0.0 0.0 -6.87774 20.1879 -1.52333 1.0132 -0.043046 -0.149519 5.31621 28.3198 -0.817058 -32.6128 0.0 0.0 -0.0 0.0 -0.0 -3.82685 4.25071 -2.09652 0.365025 0.0152032 0.0539526 -5.66946 14.2086 -0.910789 39.7366 -0.0 -0.0 0.0 0.0 0.0 
